<svg width="96" height="96" viewBox="0 0 96 96" fill="none" xmlns="http://www.w3.org/2000/svg">
  <defs>
    <linearGradient id="bg" x1="16" y1="12" x2="80" y2="84" gradientUnits="userSpaceOnUse">
      <stop stop-color="#F4FAFF"/>
      <stop offset="1" stop-color="#D5E7F7"/>
    </linearGradient>
    <linearGradient id="accent" x1="29" y1="28" x2="67" y2="69" gradientUnits="userSpaceOnUse">
      <stop stop-color="#4E88B5"/>
      <stop offset="1" stop-color="#2F678C"/>
    </linearGradient>
  </defs>
  <circle cx="48" cy="48" r="46" fill="url(#bg)"/>
  <circle cx="48" cy="48" r="45" stroke="#A9C6DE" stroke-width="2"/>
  <path d="M48 21C37.2304 21 28.5 29.7304 28.5 40.5C28.5 51.2696 37.2304 60 48 60C58.7696 60 67.5 51.2696 67.5 40.5C67.5 29.7304 58.7696 21 48 21Z" fill="url(#accent)"/>
  <path d="M24 78C27.8438 66.0197 37.1627 60 48 60C58.8373 60 68.1562 66.0197 72 78" fill="url(#accent)"/>
  <circle cx="41.5" cy="39.5" r="3" fill="#F4FAFF"/>
  <circle cx="54.5" cy="39.5" r="3" fill="#F4FAFF"/>
  <path d="M41 48.5C43.2 50.8555 45.9879 52 49 52C52.0121 52 54.8 50.8555 57 48.5" stroke="#F4FAFF" stroke-width="3" stroke-linecap="round"/>
  <path d="M48 14L50.898 19.8716L57.3779 20.8135L52.689 25.3842L53.796 31.837L48 28.79L42.204 31.837L43.311 25.3842L38.6221 20.8135L45.102 19.8716L48 14Z" fill="#F8D36A"/>
</svg>
